# This file uses centimeters as units for non-parametric coordinates.

mtllib Catwalk1Stairs1.mtl
g default
v -200.000000 99.999985 100.000011
v 0.000000 0.000000 100.000011
v -200.000000 129.999985 100.000011
v 0.000000 30.000000 100.000011
v -200.000000 129.999985 90.326793
v 0.000000 30.000000 90.326793
v -200.000000 99.999985 90.326793
v 0.000000 0.000000 90.326793
v -200.000000 99.999985 -99.999989
v 0.000000 0.000000 -99.999989
v -200.000000 129.999985 -99.999989
v 0.000000 30.000000 -99.999989
v -200.000000 129.999985 -90.326741
v 0.000000 30.000000 -90.326741
v -200.000000 99.999985 -90.326741
v 0.000000 0.000000 -90.326741
v -115.274811 69.447807 86.638927
v -89.788452 69.447807 86.638927
v -115.274811 69.447807 -86.638905
v -89.788452 69.447807 -86.638905
v -119.198212 64.732979 90.326793
v -85.865173 64.732979 90.326793
v -119.198212 69.732979 90.326793
v -85.865173 69.732979 90.326793
v -119.198212 69.732979 -90.326741
v -85.865173 69.732979 -90.326741
v -119.198212 64.732979 -90.326741
v -85.865173 64.732979 -90.326741
v -115.274811 69.732979 86.638927
v -89.788452 69.732979 86.638927
v -89.788452 69.732979 -86.638905
v -115.274811 69.732979 -86.638905
v -115.274811 64.732979 -86.638905
v -89.788452 64.732979 -86.638905
v -89.788452 64.732979 86.638927
v -115.274811 64.732979 86.638927
v -115.274811 66.392036 -86.638905
v -89.788452 66.392036 -86.638905
v -115.274811 66.392036 86.638897
v -89.788452 66.392036 86.638927
v -75.551941 50.600853 86.638927
v -50.065613 50.600853 86.638927
v -75.551941 50.600853 -86.638905
v -50.065613 50.600853 -86.638905
v -79.475342 45.886024 90.326793
v -46.142334 45.886024 90.326793
v -79.475342 50.886024 90.326793
v -46.142334 50.886024 90.326793
v -79.475342 50.886024 -90.326741
v -46.142334 50.886024 -90.326741
v -79.475342 45.886024 -90.326741
v -46.142334 45.886024 -90.326741
v -75.551941 50.886024 86.638927
v -50.065613 50.886024 86.638927
v -50.065613 50.886024 -86.638905
v -75.551941 50.886024 -86.638905
v -75.551941 45.886024 -86.638905
v -50.065613 45.886024 -86.638905
v -50.065613 45.886024 86.638927
v -75.551941 45.886024 86.638927
v -75.551941 47.545082 -86.638905
v -50.065613 47.545082 -86.638905
v -75.551941 47.545082 86.638897
v -50.065613 47.545082 86.638927
v -157.280518 90.530983 86.638927
v -131.794189 90.530983 86.638927
v -157.280518 90.530983 -86.638905
v -131.794189 90.530983 -86.638905
v -161.203918 85.816154 90.326793
v -127.870911 85.816154 90.326793
v -161.203918 90.816154 90.326793
v -127.870911 90.816154 90.326793
v -161.203918 90.816154 -90.326741
v -127.870911 90.816154 -90.326741
v -161.203918 85.816154 -90.326741
v -127.870911 85.816154 -90.326741
v -157.280518 90.816154 86.638927
v -131.794189 90.816154 86.638927
v -131.794189 90.816154 -86.638905
v -157.280518 90.816154 -86.638905
v -157.280518 85.816154 -86.638905
v -131.794189 85.816154 -86.638905
v -131.794189 85.816154 86.638927
v -157.280518 85.816154 86.638927
v -157.280518 87.475212 -86.638905
v -131.794189 87.475212 -86.638905
v -157.280518 87.475212 86.638897
v -131.794189 87.475212 86.638927
v -29.409607 26.381332 86.638927
v -3.923279 26.381332 86.638927
v -29.409607 26.381332 -86.638905
v -3.923279 26.381332 -86.638905
v -33.333008 21.666504 90.326793
v 0.000000 21.666504 90.326793
v -33.333008 26.666504 90.326793
v 0.000000 26.666504 90.326793
v -33.333008 26.666504 -90.326741
v 0.000000 26.666504 -90.326741
v -33.333008 21.666504 -90.326741
v 0.000000 21.666504 -90.326741
v -29.409607 26.666504 86.638927
v -3.923279 26.666504 86.638927
v -3.923279 26.666504 -86.638905
v -29.409607 26.666504 -86.638905
v -29.409607 21.666504 -86.638905
v -3.923279 21.666504 -86.638905
v -3.923279 21.666504 86.638927
v -29.409607 21.666504 86.638927
v -29.409607 23.325562 -86.638905
v -3.923279 23.325562 -86.638905
v -29.409607 23.325562 86.638897
v -3.923279 23.325562 86.638927
v -192.885986 111.909256 86.638927
v -167.399689 111.909256 86.638927
v -192.885986 111.909256 -86.638905
v -167.399689 111.909256 -86.638905
v -196.809387 107.194427 90.326793
v -163.476379 107.194427 90.326793
v -196.809387 112.194427 90.326793
v -163.476379 112.194427 90.326793
v -196.809387 112.194427 -90.326741
v -163.476379 112.194427 -90.326741
v -196.809387 107.194427 -90.326741
v -163.476379 107.194427 -90.326741
v -192.885986 112.194427 86.638927
v -167.399689 112.194427 86.638927
v -167.399689 112.194427 -86.638905
v -192.885986 112.194427 -86.638905
v -192.885986 107.194427 -86.638905
v -167.399689 107.194427 -86.638905
v -167.399689 107.194427 86.638927
v -192.885986 107.194427 86.638927
v -192.885986 108.853485 -86.638905
v -167.399689 108.853485 -86.638905
v -192.885986 108.853485 86.638897
v -167.399689 108.853485 86.638927
vt 0.803338 0.801658
vt 0.803683 0.097840
vt 0.882822 0.149336
vt 0.882477 0.853153
vt 0.901502 0.120628
vt 0.916727 0.853170
vt 0.822363 0.069132
vt 0.769088 0.801641
vt 0.996262 0.097935
vt 0.769433 0.097823
vt 0.995917 0.801752
vt 0.784658 0.830365
vt 0.917072 0.149352
vt 0.863797 0.881861
vt 0.803338 0.801658
vt 0.803683 0.097840
vt 0.882822 0.149336
vt 0.882477 0.853153
vt 0.917072 0.149352
vt 0.916727 0.853170
vt 0.996262 0.097935
vt 0.995917 0.801752
vt 0.769088 0.801641
vt 0.769433 0.097823
vt 0.822363 0.069132
vt 0.901502 0.120628
vt 0.784658 0.830365
vt 0.863797 0.881861
vt 0.136673 0.126147
vt 0.350243 0.126147
vt 0.350243 0.873853
vt 0.136673 0.873853
vt 0.062927 0.039640
vt 0.692950 0.035491
vt 0.693714 0.065328
vt 0.063197 0.069387
vt 0.067457 0.934671
vt 0.698075 0.930644
vt 0.698344 0.960391
vt 0.068222 0.964508
vt 0.723530 0.065512
vt 0.727852 0.930773
vt 0.037640 0.934464
vt 0.033422 0.069239
vt 0.664025 0.095461
vt 0.093000 0.099635
vt 0.668256 0.900398
vt 0.097163 0.904540
vt 0.667274 0.990375
vt 0.100326 0.994109
vt 0.753441 0.095870
vt 0.757534 0.900721
vt 0.093992 0.009655
vt 0.660851 0.005891
vt 0.007732 0.904084
vt 0.003738 0.099265
vt 0.115654 0.116574
vt 0.118276 0.885710
vt 0.645585 0.883478
vt 0.642932 0.114311
vt 0.419383 0.871497
vt 0.632030 0.871497
vt 0.632030 0.128503
vt 0.419383 0.128503
vt 0.136673 0.126147
vt 0.350243 0.126147
vt 0.350243 0.873853
vt 0.136673 0.873853
vt 0.062927 0.039640
vt 0.692950 0.035491
vt 0.693714 0.065328
vt 0.063197 0.069387
vt 0.067457 0.934671
vt 0.698075 0.930644
vt 0.698344 0.960391
vt 0.068222 0.964508
vt 0.723530 0.065512
vt 0.727852 0.930773
vt 0.037640 0.934464
vt 0.033422 0.069239
vt 0.664025 0.095461
vt 0.093000 0.099635
vt 0.668256 0.900398
vt 0.097163 0.904540
vt 0.667274 0.990375
vt 0.100326 0.994109
vt 0.753441 0.095870
vt 0.757534 0.900721
vt 0.093992 0.009655
vt 0.660851 0.005891
vt 0.007732 0.904084
vt 0.003738 0.099265
vt 0.115654 0.116574
vt 0.118276 0.885710
vt 0.645585 0.883478
vt 0.642932 0.114311
vt 0.419383 0.871497
vt 0.632030 0.871497
vt 0.632030 0.128503
vt 0.419383 0.128503
vt 0.136673 0.126147
vt 0.350243 0.126147
vt 0.350243 0.873853
vt 0.136673 0.873853
vt 0.062927 0.039640
vt 0.692950 0.035491
vt 0.693714 0.065328
vt 0.063197 0.069387
vt 0.067457 0.934671
vt 0.698075 0.930644
vt 0.698344 0.960391
vt 0.068222 0.964508
vt 0.723530 0.065512
vt 0.727852 0.930773
vt 0.037640 0.934464
vt 0.033422 0.069239
vt 0.664025 0.095461
vt 0.093000 0.099635
vt 0.668256 0.900398
vt 0.097163 0.904540
vt 0.667274 0.990375
vt 0.100326 0.994109
vt 0.753441 0.095870
vt 0.757534 0.900721
vt 0.093992 0.009655
vt 0.660851 0.005891
vt 0.007732 0.904084
vt 0.003738 0.099265
vt 0.115654 0.116574
vt 0.118276 0.885710
vt 0.645585 0.883478
vt 0.642932 0.114311
vt 0.419383 0.871497
vt 0.632030 0.871497
vt 0.632030 0.128503
vt 0.419383 0.128503
vt 0.136673 0.126147
vt 0.350243 0.126147
vt 0.350243 0.873853
vt 0.136673 0.873853
vt 0.062927 0.039640
vt 0.692950 0.035491
vt 0.693714 0.065328
vt 0.063197 0.069387
vt 0.067457 0.934671
vt 0.698075 0.930644
vt 0.698344 0.960391
vt 0.068222 0.964508
vt 0.723530 0.065512
vt 0.727852 0.930773
vt 0.037640 0.934464
vt 0.033422 0.069239
vt 0.664025 0.095461
vt 0.093000 0.099635
vt 0.668256 0.900398
vt 0.097163 0.904540
vt 0.667274 0.990375
vt 0.100326 0.994109
vt 0.753441 0.095870
vt 0.757534 0.900721
vt 0.093992 0.009655
vt 0.660851 0.005891
vt 0.007732 0.904084
vt 0.003738 0.099265
vt 0.115654 0.116574
vt 0.118276 0.885710
vt 0.645585 0.883478
vt 0.642932 0.114311
vt 0.419383 0.871497
vt 0.632030 0.871497
vt 0.632030 0.128503
vt 0.419383 0.128503
vt 0.136673 0.126147
vt 0.350243 0.126147
vt 0.350243 0.873853
vt 0.136673 0.873853
vt 0.062927 0.039640
vt 0.692950 0.035491
vt 0.693714 0.065328
vt 0.063197 0.069387
vt 0.067457 0.934671
vt 0.698075 0.930644
vt 0.698344 0.960391
vt 0.068222 0.964508
vt 0.723530 0.065512
vt 0.727852 0.930773
vt 0.037640 0.934464
vt 0.033422 0.069239
vt 0.664025 0.095461
vt 0.093000 0.099635
vt 0.668256 0.900398
vt 0.097163 0.904540
vt 0.667274 0.990375
vt 0.100326 0.994109
vt 0.753441 0.095870
vt 0.757534 0.900721
vt 0.093992 0.009655
vt 0.660851 0.005891
vt 0.007732 0.904084
vt 0.003738 0.099265
vt 0.115654 0.116574
vt 0.118276 0.885710
vt 0.645585 0.883478
vt 0.642932 0.114311
vt 0.419383 0.871497
vt 0.632030 0.871497
vt 0.632030 0.128503
vt 0.419383 0.128503
vn 0.000000 0.000000 1.000000
vn 0.000000 0.000000 1.000000
vn 0.000000 0.000000 1.000000
vn 0.000000 0.000000 1.000000
vn 0.447213 0.894427 0.000000
vn 0.447213 0.894427 0.000000
vn 0.447213 0.894427 0.000000
vn 0.447213 0.894427 0.000000
vn 0.000000 0.000000 -1.000000
vn 0.000000 0.000000 -1.000000
vn 0.000000 0.000000 -1.000000
vn 0.000000 0.000000 -1.000000
vn -0.447213 -0.894427 0.000000
vn -0.447213 -0.894427 0.000000
vn -0.447213 -0.894427 0.000000
vn -0.447213 -0.894427 0.000000
vn 1.000000 0.000000 0.000000
vn 1.000000 0.000000 0.000000
vn 1.000000 0.000000 0.000000
vn 1.000000 0.000000 0.000000
vn -1.000000 0.000000 0.000000
vn -1.000000 0.000000 0.000000
vn -1.000000 0.000000 0.000000
vn -1.000000 0.000000 0.000000
vn 0.000000 0.000000 -1.000000
vn 0.000000 0.000000 -1.000000
vn 0.000000 0.000000 -1.000000
vn 0.000000 0.000000 -1.000000
vn 0.447213 0.894427 0.000000
vn 0.447213 0.894427 0.000000
vn 0.447213 0.894427 0.000000
vn 0.447213 0.894427 0.000000
vn 0.000000 0.000000 1.000000
vn 0.000000 0.000000 1.000000
vn 0.000000 0.000000 1.000000
vn 0.000000 0.000000 1.000000
vn -0.447213 -0.894427 0.000000
vn -0.447213 -0.894427 0.000000
vn -0.447213 -0.894427 0.000000
vn -0.447213 -0.894427 0.000000
vn 1.000000 0.000000 0.000000
vn 1.000000 0.000000 0.000000
vn 1.000000 0.000000 0.000000
vn 1.000000 0.000000 0.000000
vn -1.000000 0.000000 0.000000
vn -1.000000 0.000000 0.000000
vn -1.000000 0.000000 0.000000
vn -1.000000 0.000000 0.000000
vn 0.000000 1.000000 0.000000
vn 0.000000 1.000000 0.000000
vn 0.000000 1.000000 0.000000
vn 0.000000 1.000000 0.000000
vn 0.000000 0.000000 1.000000
vn 0.000000 0.000000 1.000000
vn 0.000000 0.000000 1.000000
vn 0.000000 0.000000 1.000000
vn 0.000000 0.000000 -1.000000
vn 0.000000 0.000000 -1.000000
vn 0.000000 0.000000 -1.000000
vn 0.000000 0.000000 -1.000000
vn 1.000000 0.000000 0.000000
vn 1.000000 0.000000 0.000000
vn 1.000000 0.000000 0.000000
vn 1.000000 0.000000 0.000000
vn -1.000000 0.000000 0.000000
vn -1.000000 0.000000 0.000000
vn -1.000000 0.000000 0.000000
vn -1.000000 0.000000 0.000000
vn 0.000000 1.000000 0.000000
vn 0.000000 1.000000 0.000000
vn 0.000000 1.000000 0.000000
vn 0.000000 1.000000 0.000000
vn 0.000000 1.000000 -0.000000
vn 0.000000 1.000000 -0.000000
vn 0.000000 1.000000 -0.000000
vn 0.000000 1.000000 -0.000000
vn 0.000000 -1.000000 -0.000000
vn 0.000000 -1.000000 -0.000000
vn 0.000000 -1.000000 -0.000000
vn 0.000000 -1.000000 -0.000000
vn 0.000000 -1.000000 0.000000
vn 0.000000 -1.000000 0.000000
vn 0.000000 -1.000000 0.000000
vn 0.000000 -1.000000 0.000000
vn 1.000000 0.000000 0.000000
vn 1.000000 0.000000 0.000000
vn 1.000000 0.000000 0.000000
vn 1.000000 0.000000 0.000000
vn 0.000000 0.000000 1.000000
vn 0.000000 0.000000 1.000000
vn 0.000000 0.000000 1.000000
vn 0.000000 0.000000 1.000000
vn -1.000000 0.000000 0.000000
vn -1.000000 0.000000 0.000000
vn -1.000000 0.000000 0.000000
vn -1.000000 0.000000 0.000000
vn 0.000000 0.000000 -1.000000
vn 0.000000 0.000000 -1.000000
vn 0.000000 0.000000 -1.000000
vn 0.000000 0.000000 -1.000000
vn 0.000000 -1.000000 0.000000
vn 0.000000 -1.000000 0.000000
vn 0.000000 -1.000000 0.000000
vn 0.000000 -1.000000 0.000000
vn 0.000000 1.000000 0.000000
vn 0.000000 1.000000 0.000000
vn 0.000000 1.000000 0.000000
vn 0.000000 1.000000 0.000000
vn 0.000000 0.000000 1.000000
vn 0.000000 0.000000 1.000000
vn 0.000000 0.000000 1.000000
vn 0.000000 0.000000 1.000000
vn 0.000000 0.000000 -1.000000
vn 0.000000 0.000000 -1.000000
vn 0.000000 0.000000 -1.000000
vn 0.000000 0.000000 -1.000000
vn 1.000000 0.000000 0.000000
vn 1.000000 0.000000 0.000000
vn 1.000000 0.000000 0.000000
vn 1.000000 0.000000 0.000000
vn -1.000000 0.000000 0.000000
vn -1.000000 0.000000 0.000000
vn -1.000000 0.000000 0.000000
vn -1.000000 0.000000 0.000000
vn 0.000000 1.000000 0.000000
vn 0.000000 1.000000 0.000000
vn 0.000000 1.000000 0.000000
vn 0.000000 1.000000 0.000000
vn 0.000000 1.000000 -0.000000
vn 0.000000 1.000000 -0.000000
vn 0.000000 1.000000 -0.000000
vn 0.000000 1.000000 -0.000000
vn 0.000000 -1.000000 0.000000
vn 0.000000 -1.000000 0.000000
vn 0.000000 -1.000000 0.000000
vn 0.000000 -1.000000 0.000000
vn 0.000000 -1.000000 -0.000000
vn 0.000000 -1.000000 -0.000000
vn 0.000000 -1.000000 -0.000000
vn 0.000000 -1.000000 -0.000000
vn 1.000000 0.000000 0.000000
vn 1.000000 0.000000 0.000000
vn 1.000000 0.000000 0.000000
vn 1.000000 0.000000 0.000000
vn 0.000000 0.000000 1.000000
vn 0.000000 0.000000 1.000000
vn 0.000000 0.000000 1.000000
vn 0.000000 0.000000 1.000000
vn -1.000000 0.000000 0.000000
vn -1.000000 0.000000 0.000000
vn -1.000000 0.000000 0.000000
vn -1.000000 0.000000 0.000000
vn 0.000000 0.000000 -1.000000
vn 0.000000 0.000000 -1.000000
vn 0.000000 0.000000 -1.000000
vn 0.000000 0.000000 -1.000000
vn 0.000000 -1.000000 0.000000
vn 0.000000 -1.000000 0.000000
vn 0.000000 -1.000000 0.000000
vn 0.000000 -1.000000 0.000000
vn 0.000000 1.000000 0.000000
vn 0.000000 1.000000 0.000000
vn 0.000000 1.000000 0.000000
vn 0.000000 1.000000 0.000000
vn 0.000000 0.000000 1.000000
vn 0.000000 0.000000 1.000000
vn 0.000000 0.000000 1.000000
vn 0.000000 0.000000 1.000000
vn 0.000000 0.000000 -1.000000
vn 0.000000 0.000000 -1.000000
vn 0.000000 0.000000 -1.000000
vn 0.000000 0.000000 -1.000000
vn 1.000000 0.000000 0.000000
vn 1.000000 0.000000 0.000000
vn 1.000000 0.000000 0.000000
vn 1.000000 0.000000 0.000000
vn -1.000000 0.000000 0.000000
vn -1.000000 0.000000 0.000000
vn -1.000000 0.000000 0.000000
vn -1.000000 0.000000 0.000000
vn 0.000000 1.000000 0.000000
vn 0.000000 1.000000 0.000000
vn 0.000000 1.000000 0.000000
vn 0.000000 1.000000 0.000000
vn 0.000000 1.000000 0.000000
vn 0.000000 1.000000 0.000000
vn 0.000000 1.000000 0.000000
vn 0.000000 1.000000 0.000000
vn 0.000000 -1.000000 -0.000000
vn 0.000000 -1.000000 -0.000000
vn 0.000000 -1.000000 -0.000000
vn 0.000000 -1.000000 -0.000000
vn 0.000000 -1.000000 -0.000000
vn 0.000000 -1.000000 -0.000000
vn 0.000000 -1.000000 -0.000000
vn 0.000000 -1.000000 -0.000000
vn 1.000000 0.000000 0.000000
vn 1.000000 0.000000 0.000000
vn 1.000000 0.000000 0.000000
vn 1.000000 0.000000 0.000000
vn 0.000000 0.000000 1.000000
vn 0.000000 0.000000 1.000000
vn 0.000000 0.000000 1.000000
vn 0.000000 0.000000 1.000000
vn -1.000000 0.000000 0.000000
vn -1.000000 0.000000 0.000000
vn -1.000000 0.000000 0.000000
vn -1.000000 0.000000 0.000000
vn 0.000000 0.000000 -1.000000
vn 0.000000 0.000000 -1.000000
vn 0.000000 0.000000 -1.000000
vn 0.000000 0.000000 -1.000000
vn 0.000000 -1.000000 0.000000
vn 0.000000 -1.000000 0.000000
vn 0.000000 -1.000000 0.000000
vn 0.000000 -1.000000 0.000000
vn 0.000000 1.000000 0.000000
vn 0.000000 1.000000 0.000000
vn 0.000000 1.000000 0.000000
vn 0.000000 1.000000 0.000000
vn 0.000000 0.000000 1.000000
vn 0.000000 0.000000 1.000000
vn 0.000000 0.000000 1.000000
vn 0.000000 0.000000 1.000000
vn 0.000000 0.000000 -1.000000
vn 0.000000 0.000000 -1.000000
vn 0.000000 0.000000 -1.000000
vn 0.000000 0.000000 -1.000000
vn 1.000000 0.000000 0.000000
vn 1.000000 0.000000 0.000000
vn 1.000000 0.000000 0.000000
vn 1.000000 0.000000 0.000000
vn -1.000000 0.000000 0.000000
vn -1.000000 0.000000 0.000000
vn -1.000000 0.000000 0.000000
vn -1.000000 0.000000 0.000000
vn 0.000000 1.000000 0.000000
vn 0.000000 1.000000 0.000000
vn 0.000000 1.000000 0.000000
vn 0.000000 1.000000 0.000000
vn 0.000000 1.000000 0.000000
vn 0.000000 1.000000 0.000000
vn 0.000000 1.000000 0.000000
vn 0.000000 1.000000 0.000000
vn 0.000000 -1.000000 -0.000000
vn 0.000000 -1.000000 -0.000000
vn 0.000000 -1.000000 -0.000000
vn 0.000000 -1.000000 -0.000000
vn 0.000000 -1.000000 -0.000000
vn 0.000000 -1.000000 -0.000000
vn 0.000000 -1.000000 -0.000000
vn 0.000000 -1.000000 -0.000000
vn 1.000000 0.000000 0.000000
vn 1.000000 0.000000 0.000000
vn 1.000000 0.000000 0.000000
vn 1.000000 0.000000 0.000000
vn 0.000000 0.000000 1.000000
vn 0.000000 0.000000 1.000000
vn 0.000000 0.000000 1.000000
vn 0.000000 0.000000 1.000000
vn -1.000000 0.000000 0.000000
vn -1.000000 0.000000 0.000000
vn -1.000000 0.000000 0.000000
vn -1.000000 0.000000 0.000000
vn 0.000000 0.000000 -1.000000
vn 0.000000 0.000000 -1.000000
vn 0.000000 0.000000 -1.000000
vn 0.000000 0.000000 -1.000000
vn 0.000000 -1.000000 0.000000
vn 0.000000 -1.000000 0.000000
vn 0.000000 -1.000000 0.000000
vn 0.000000 -1.000000 0.000000
vn 0.000000 1.000000 0.000000
vn 0.000000 1.000000 0.000000
vn 0.000000 1.000000 0.000000
vn 0.000000 1.000000 0.000000
vn 0.000000 0.000000 1.000000
vn 0.000000 0.000000 1.000000
vn 0.000000 0.000000 1.000000
vn 0.000000 0.000000 1.000000
vn 0.000000 0.000000 -1.000000
vn 0.000000 0.000000 -1.000000
vn 0.000000 0.000000 -1.000000
vn 0.000000 0.000000 -1.000000
vn 1.000000 0.000000 0.000000
vn 1.000000 0.000000 0.000000
vn 1.000000 0.000000 0.000000
vn 1.000000 0.000000 0.000000
vn -1.000000 0.000000 0.000000
vn -1.000000 0.000000 0.000000
vn -1.000000 0.000000 0.000000
vn -1.000000 0.000000 0.000000
vn 0.000000 1.000000 -0.000000
vn 0.000000 1.000000 -0.000000
vn 0.000000 1.000000 -0.000000
vn 0.000000 1.000000 -0.000000
vn 0.000000 1.000000 0.000000
vn 0.000000 1.000000 0.000000
vn 0.000000 1.000000 0.000000
vn 0.000000 1.000000 0.000000
vn 0.000000 -1.000000 0.000000
vn 0.000000 -1.000000 0.000000
vn 0.000000 -1.000000 0.000000
vn 0.000000 -1.000000 0.000000
vn 0.000000 -1.000000 0.000000
vn 0.000000 -1.000000 0.000000
vn 0.000000 -1.000000 0.000000
vn 0.000000 -1.000000 0.000000
vn 1.000000 0.000000 0.000000
vn 1.000000 0.000000 0.000000
vn 1.000000 0.000000 0.000000
vn 1.000000 0.000000 0.000000
vn 0.000000 0.000000 1.000000
vn 0.000000 0.000000 1.000000
vn 0.000000 0.000000 1.000000
vn 0.000000 0.000000 1.000000
vn -1.000000 0.000000 0.000000
vn -1.000000 0.000000 0.000000
vn -1.000000 0.000000 0.000000
vn -1.000000 0.000000 0.000000
vn 0.000000 0.000000 -1.000000
vn 0.000000 0.000000 -1.000000
vn 0.000000 0.000000 -1.000000
vn 0.000000 0.000000 -1.000000
vn 0.000000 -1.000000 0.000000
vn 0.000000 -1.000000 0.000000
vn 0.000000 -1.000000 0.000000
vn 0.000000 -1.000000 0.000000
s off
g CatwalkStairway1_LOD0 CatwalkStairway1_LOD1 CatwalkStairway1_LOD2
usemtl initialShadingGroup
f 1/1/1 2/2/2 4/3/3 3/4/4
f 3/4/5 4/3/6 6/13/7 5/6/8
f 5/6/9 6/13/10 8/9/11 7/11/12
f 7/8/13 8/10/14 2/2/15 1/1/16
f 2/2/17 8/7/18 6/5/19 4/3/20
f 7/12/21 1/1/22 3/4/23 5/14/24
f 9/15/25 11/18/26 12/17/27 10/16/28
f 11/18/29 13/20/30 14/19/31 12/17/32
f 13/20/33 15/22/34 16/21/35 14/19/36
f 15/23/37 9/15/38 10/16/39 16/24/40
f 10/16/41 12/17/42 14/26/43 16/25/44
f 15/27/45 13/28/46 11/18/47 9/15/48
f 17/29/49 18/30/50 20/31/51 19/32/52
f 21/33/53 22/34/54 24/35/55 23/36/56
f 25/37/57 26/38/58 28/39/59 27/40/60
f 22/41/61 28/42/62 26/38/63 24/35/64
f 27/43/65 21/44/66 23/36/67 25/37/68
s 1
f 23/36/69 24/35/70 30/45/71 29/46/72
f 24/35/70 26/38/73 31/47/74 30/45/71
f 26/38/73 25/37/75 32/48/76 31/47/74
f 25/37/75 23/36/69 29/46/72 32/48/76
s 2
f 27/40/77 28/39/78 34/49/79 33/50/80
f 28/42/78 22/41/81 35/51/82 34/52/79
f 22/34/81 21/33/83 36/53/84 35/54/82
f 21/44/83 27/43/77 33/55/80 36/56/84
s off
f 32/48/85 29/46/86 36/57/87 33/58/88
f 31/47/89 32/48/90 33/58/91 34/59/92
f 30/45/93 31/47/94 34/59/95 35/60/96
f 29/46/97 30/45/98 35/60/99 36/57/100
f 37/61/101 38/62/102 40/63/103 39/64/104
f 41/65/105 42/66/106 44/67/107 43/68/108
f 45/69/109 46/70/110 48/71/111 47/72/112
f 49/73/113 50/74/114 52/75/115 51/76/116
f 46/77/117 52/78/118 50/74/119 48/71/120
f 51/79/121 45/80/122 47/72/123 49/73/124
s 3
f 47/72/125 48/71/126 54/81/127 53/82/128
f 48/71/126 50/74/129 55/83/130 54/81/127
f 50/74/129 49/73/131 56/84/132 55/83/130
f 49/73/131 47/72/125 53/82/128 56/84/132
s 4
f 51/76/133 52/75/134 58/85/135 57/86/136
f 52/78/134 46/77/137 59/87/138 58/88/135
f 46/70/137 45/69/139 60/89/140 59/90/138
f 45/80/139 51/79/133 57/91/136 60/92/140
s off
f 56/84/141 53/82/142 60/93/143 57/94/144
f 55/83/145 56/84/146 57/94/147 58/95/148
f 54/81/149 55/83/150 58/95/151 59/96/152
f 53/82/153 54/81/154 59/96/155 60/93/156
f 61/97/157 62/98/158 64/99/159 63/100/160
f 65/101/161 66/102/162 68/103/163 67/104/164
f 69/105/165 70/106/166 72/107/167 71/108/168
f 73/109/169 74/110/170 76/111/171 75/112/172
f 70/113/173 76/114/174 74/110/175 72/107/176
f 75/115/177 69/116/178 71/108/179 73/109/180
s 5
f 71/108/181 72/107/182 78/117/183 77/118/184
f 72/107/182 74/110/185 79/119/186 78/117/183
f 74/110/185 73/109/187 80/120/188 79/119/186
f 73/109/187 71/108/181 77/118/184 80/120/188
s 6
f 75/112/189 76/111/190 82/121/191 81/122/192
f 76/114/190 70/113/193 83/123/194 82/124/191
f 70/106/193 69/105/195 84/125/196 83/126/194
f 69/116/195 75/115/189 81/127/192 84/128/196
s off
f 80/120/197 77/118/198 84/129/199 81/130/200
f 79/119/201 80/120/202 81/130/203 82/131/204
f 78/117/205 79/119/206 82/131/207 83/132/208
f 77/118/209 78/117/210 83/132/211 84/129/212
f 85/133/213 86/134/214 88/135/215 87/136/216
f 89/137/217 90/138/218 92/139/219 91/140/220
f 93/141/221 94/142/222 96/143/223 95/144/224
f 97/145/225 98/146/226 100/147/227 99/148/228
f 94/149/229 100/150/230 98/146/231 96/143/232
f 99/151/233 93/152/234 95/144/235 97/145/236
s 7
f 95/144/237 96/143/238 102/153/239 101/154/240
f 96/143/238 98/146/241 103/155/242 102/153/239
f 98/146/241 97/145/243 104/156/244 103/155/242
f 97/145/243 95/144/237 101/154/240 104/156/244
s 8
f 99/148/245 100/147/246 106/157/247 105/158/248
f 100/150/246 94/149/249 107/159/250 106/160/247
f 94/142/249 93/141/251 108/161/252 107/162/250
f 93/152/251 99/151/245 105/163/248 108/164/252
s off
f 104/156/253 101/154/254 108/165/255 105/166/256
f 103/155/257 104/156/258 105/166/259 106/167/260
f 102/153/261 103/155/262 106/167/263 107/168/264
f 101/154/265 102/153/266 107/168/267 108/165/268
f 109/169/269 110/170/270 112/171/271 111/172/272
f 113/173/273 114/174/274 116/175/275 115/176/276
f 117/177/277 118/178/278 120/179/279 119/180/280
f 121/181/281 122/182/282 124/183/283 123/184/284
f 118/185/285 124/186/286 122/182/287 120/179/288
f 123/187/289 117/188/290 119/180/291 121/181/292
s 9
f 119/180/293 120/179/294 126/189/295 125/190/296
f 120/179/294 122/182/297 127/191/298 126/189/295
f 122/182/297 121/181/299 128/192/300 127/191/298
f 121/181/299 119/180/293 125/190/296 128/192/300
s 10
f 123/184/301 124/183/302 130/193/303 129/194/304
f 124/186/302 118/185/305 131/195/306 130/196/303
f 118/178/305 117/177/307 132/197/308 131/198/306
f 117/188/307 123/187/301 129/199/304 132/200/308
s off
f 128/192/309 125/190/310 132/201/311 129/202/312
f 127/191/313 128/192/314 129/202/315 130/203/316
f 126/189/317 127/191/318 130/203/319 131/204/320
f 125/190/321 126/189/322 131/204/323 132/201/324
f 133/205/325 134/206/326 136/207/327 135/208/328
