# This file uses centimeters as units for non-parametric coordinates.

mtllib SciencePlant_Glass.mtl
g default
v 19.021143 12.942033 -6.180344
v 16.180351 12.942033 -11.755713
v 11.755713 12.942033 -16.180349
v 6.180343 12.942033 -19.021141
v 0.000000 12.942033 -20.000010
v -6.180343 12.942033 -19.021139
v -11.755710 12.942033 -16.180346
v -16.180346 12.942033 -11.755709
v -19.021135 12.942033 -6.180341
v -20.000004 12.942033 0.000000
v -19.021135 12.942033 6.180341
v -16.180344 12.942033 11.755707
v -11.755707 12.942033 16.180342
v -6.180341 12.942033 19.021133
v -0.000001 12.942033 20.000002
v 6.180339 12.942033 19.021132
v 11.755705 12.942033 16.180342
v 16.180340 12.942033 11.755706
v 19.021132 12.942033 6.180340
v 20.000000 12.942033 0.000000
v 19.021143 100.000002 -6.180344
v 16.180351 100.000002 -11.755713
v 11.755713 100.000002 -16.180349
v 6.180343 100.000002 -19.021141
v 0.000000 100.000002 -20.000010
v -6.180343 100.000002 -19.021139
v -11.755710 100.000002 -16.180346
v -16.180346 100.000002 -11.755709
v -19.021135 100.000002 -6.180341
v -20.000004 100.000002 0.000000
v -19.021135 100.000002 6.180341
v -16.180344 100.000002 11.755707
v -11.755707 100.000002 16.180342
v -6.180341 100.000002 19.021133
v -0.000001 100.000002 20.000002
v 6.180339 100.000002 19.021132
v 11.755705 100.000002 16.180342
v 16.180340 100.000002 11.755706
v 19.021132 100.000002 6.180340
v 20.000000 100.000002 0.000000
vt -0.885510 0.439411
vt -0.873010 0.439411
vt -0.860510 0.439411
vt -0.848010 0.439411
vt -0.835510 0.439411
vt -0.823010 0.439411
vt -0.810510 0.439411
vt -0.798010 0.439411
vt -0.785510 0.439411
vt -0.773010 0.439411
vt -0.760510 0.439411
vt -0.748010 0.439411
vt -0.735510 0.439411
vt -0.723010 0.439411
vt -0.710510 0.439411
vt -0.698010 0.439411
vt -0.685510 0.439411
vt -0.673010 0.439411
vt -0.660510 0.439411
vt -0.648010 0.439411
vt -0.635510 0.439411
vt -0.885510 0.814411
vt -0.873010 0.814411
vt -0.860510 0.814411
vt -0.848010 0.814411
vt -0.835510 0.814411
vt -0.823010 0.814411
vt -0.810510 0.814411
vt -0.798010 0.814411
vt -0.785510 0.814411
vt -0.773010 0.814411
vt -0.760510 0.814411
vt -0.748010 0.814411
vt -0.735510 0.814411
vt -0.723010 0.814411
vt -0.710510 0.814411
vt -0.698010 0.814411
vt -0.685510 0.814411
vt -0.673010 0.814411
vt -0.660510 0.814411
vt -0.648010 0.814411
vt -0.635510 0.814411
vn 0.951057 0.000000 -0.309016
vn 0.809017 0.000000 -0.587785
vn 0.809017 0.000000 -0.587785
vn 0.951057 0.000000 -0.309016
vn 0.587785 0.000000 -0.809017
vn 0.587785 0.000000 -0.809017
vn 0.309017 0.000000 -0.951057
vn 0.309017 0.000000 -0.951057
vn -0.000000 0.000000 -1.000000
vn -0.000000 0.000000 -1.000000
vn -0.309017 0.000000 -0.951056
vn -0.309017 0.000000 -0.951056
vn -0.587786 0.000000 -0.809017
vn -0.587786 0.000000 -0.809017
vn -0.809017 0.000000 -0.587785
vn -0.809017 0.000000 -0.587785
vn -0.951057 0.000000 -0.309017
vn -0.951057 0.000000 -0.309017
vn -1.000000 0.000000 0.000000
vn -1.000000 0.000000 0.000000
vn -0.951057 0.000000 0.309017
vn -0.951057 0.000000 0.309017
vn -0.809017 0.000000 0.587785
vn -0.809017 0.000000 0.587785
vn -0.587785 0.000000 0.809017
vn -0.587785 0.000000 0.809017
vn -0.309017 0.000000 0.951057
vn -0.309017 0.000000 0.951057
vn 0.000000 0.000000 1.000000
vn 0.000000 0.000000 1.000000
vn 0.309017 0.000000 0.951056
vn 0.309017 0.000000 0.951056
vn 0.587785 0.000000 0.809017
vn 0.587785 0.000000 0.809017
vn 0.809017 0.000000 0.587785
vn 0.809017 0.000000 0.587785
vn 0.951056 0.000000 0.309017
vn 0.951056 0.000000 0.309017
vn 1.000000 0.000000 0.000001
vn 1.000000 0.000000 0.000001
s 1
g GlassPane
usemtl blinn1SG
f 1/1/1 2/2/2 22/23/3 21/22/4
f 2/2/2 3/3/5 23/24/6 22/23/3
f 3/3/5 4/4/7 24/25/8 23/24/6
f 4/4/7 5/5/9 25/26/10 24/25/8
f 5/5/9 6/6/11 26/27/12 25/26/10
f 6/6/11 7/7/13 27/28/14 26/27/12
f 7/7/13 8/8/15 28/29/16 27/28/14
f 8/8/15 9/9/17 29/30/18 28/29/16
f 9/9/17 10/10/19 30/31/20 29/30/18
f 10/10/19 11/11/21 31/32/22 30/31/20
f 11/11/21 12/12/23 32/33/24 31/32/22
f 12/12/23 13/13/25 33/34/26 32/33/24
f 13/13/25 14/14/27 34/35/28 33/34/26
f 14/14/27 15/15/29 35/36/30 34/35/28
f 15/15/29 16/16/31 36/37/32 35/36/30
f 16/16/31 17/17/33 37/38/34 36/37/32
f 17/17/33 18/18/35 38/39/36 37/38/34
f 18/18/35 19/19/37 39/40/38 38/39/36
f 19/19/37 20/20/39 40/41/40 39/40/38
f 20/20/39 1/21/1 21/42/4 40/41/40
