# This file uses centimeters as units for non-parametric coordinates.

mtllib AirConditioner.mtl
g default
v 28.128695 6.461986 -20.147913
v 28.128695 6.461986 20.147913
v 28.128695 36.925063 -20.147913
v 28.128695 36.925063 20.147913
v 28.128695 46.239440 -9.488348
v 28.128695 46.239440 9.488350
v -28.128693 5.637136 -20.983509
v -28.128693 5.637136 20.983509
v -28.128693 37.363616 20.983509
v -28.128693 37.363616 -20.983509
v -28.128693 47.064292 9.881863
v -28.128693 47.064292 -9.881861
v -17.858173 5.637136 -20.983509
v -17.858173 5.637136 20.983509
v -17.858173 37.363616 20.983509
v -17.858173 37.363616 -20.983509
v -17.858173 47.064292 9.881863
v -17.858173 47.064292 -9.881861
v -28.128693 0.547725 26.139246
v -28.128693 -0.000001 26.301764
v -27.573828 -0.000001 26.694111
v -27.573828 40.360747 26.694111
v -28.128693 40.108741 26.139246
v 28.128695 0.547726 26.139246
v 27.573830 -0.000001 26.694111
v 28.128695 -0.000001 26.301764
v 27.573830 40.360747 26.694111
v 28.128695 40.108741 26.139246
v -27.573828 40.360747 -26.694111
v -28.128693 40.108741 -26.139246
v -28.128693 0.547725 -26.139246
v -27.573828 -0.000001 -26.694111
v -28.128693 -0.000001 -26.301764
v 27.573830 40.360747 -26.694111
v 28.128695 40.108741 -26.139246
v 28.128695 0.547726 -26.139246
v 28.128695 -0.000001 -26.301764
v 27.573830 -0.000001 -26.694111
v -27.573828 52.701428 12.571183
v -28.128693 52.146565 12.362916
v 27.573830 52.701428 12.571183
v 28.128695 52.146565 12.362916
v 27.573830 52.701428 -12.571182
v 28.128695 52.146565 -12.362915
v -27.573828 52.701428 -12.571182
v -28.128693 52.146565 -12.362915
v 33.677891 7.016850 -19.593048
v 33.123028 6.461986 -20.147913
v 33.123028 6.461986 20.147913
v 33.677891 7.016850 19.593048
v 33.677891 36.673057 -19.593048
v 33.123028 36.925063 -20.147913
v 33.123028 36.925063 20.147913
v 33.677891 36.673057 19.593048
v 33.677891 45.684577 -9.280081
v 33.123028 46.239440 -9.488348
v 33.677891 45.684577 9.280083
v 33.123028 46.239440 9.488350
vt 0.759671 0.102511
vt 0.495638 0.102511
vt 0.495638 0.304718
vt 0.759671 0.304718
vt 0.565483 0.366545
vt 0.689826 0.366545
vt 0.857308 0.004875
vt 0.858736 0.000000
vt 0.396574 0.000000
vt 0.812011 0.050172
vt 0.397854 0.468489
vt 0.396574 0.464118
vt 0.810978 0.464118
vt 0.818087 0.814932
vt 0.819750 0.813693
vt 0.985034 0.813693
vt 0.986697 0.814932
vt 0.986697 0.981065
vt 0.985034 0.982304
vt 0.819750 0.982304
vt 0.818087 0.981065
vt 0.003870 0.000000
vt 0.000000 0.279749
vt 0.000000 0.283265
vt 0.000000 0.410866
vt 0.392382 0.003820
vt 0.392382 0.279749
vt 0.392382 0.283265
vt 0.392382 0.410866
vt 0.000000 0.716735
vt 0.000000 0.589134
vt 0.000000 0.720250
vt 0.003870 1.000000
vt 0.000000 0.996180
vt 0.392382 0.720250
vt 0.392382 0.996180
vt 0.388512 1.000000
vt 0.392382 0.716735
vt 0.392382 0.589134
vt 0.000000 0.413772
vt 0.000000 0.586228
vt 0.392382 0.413772
vt 0.392382 0.586228
vt 0.722445 0.555786
vt 0.485107 0.555786
vt 0.547570 0.793036
vt 0.388512 0.000000
vt 0.388512 0.281507
vt 0.003870 0.412319
vt 0.388512 0.587681
vt 0.003870 0.718493
vt 0.722445 0.737745
vt 0.003870 0.281507
vt 0.388512 0.412319
vt 0.485107 0.737745
vt 0.659983 0.793036
vt 0.388512 0.718493
vt 0.003870 0.587681
vt 0.809698 0.468489
vt 0.809698 0.784208
vt 0.701170 0.880276
vt 0.506382 0.880276
vt 0.397854 0.784207
vt 0.762499 0.515688
vt 0.478078 0.548712
vt 0.762499 0.758800
vt 0.729474 0.548712
vt 0.445053 0.515688
vt 0.478078 0.741242
vt 0.678524 0.833134
vt 0.729474 0.741242
vt 0.529028 0.833134
vt 0.662972 0.800109
vt 0.445053 0.758800
vt 0.544580 0.800109
vt 0.398001 0.004875
vt 0.398001 0.356978
vt 0.443298 0.050172
vt 0.812011 0.332546
vt 0.519037 0.464118
vt 0.443298 0.332546
vt 0.736272 0.464118
vt 0.540835 0.418884
vt 0.857308 0.356978
vt 0.714474 0.418884
vt 0.000000 0.003820
vt 0.000000 -0.000000
vt 0.392382 -0.000000
vt 0.000000 1.000000
vt 0.392382 1.000000
vn -1.000000 0.000000 0.000000
vn -1.000000 0.000000 0.000000
vn -1.000000 0.000000 0.000000
vn -1.000000 0.000000 0.000000
vn -1.000000 0.000000 0.000000
vn -1.000000 0.000000 0.000000
vn 0.000000 1.000000 0.000000
vn 0.000000 1.000000 0.000000
vn 0.000000 1.000000 0.000000
vn 0.000000 1.000000 0.000000
vn 0.000000 0.000000 -1.000000
vn 0.000000 0.000000 -1.000000
vn 0.000000 0.000000 -1.000000
vn 0.000000 0.000000 -1.000000
vn 0.000000 0.000000 1.000000
vn 0.000000 0.000000 1.000000
vn 0.000000 0.000000 1.000000
vn 0.000000 0.000000 1.000000
vn 0.000000 -0.753022 -0.657995
vn 0.000000 -0.753022 -0.657995
vn 0.000000 -0.753022 -0.657995
vn 0.000000 -0.753022 -0.657995
vn 0.000000 -1.000000 0.000000
vn 0.000000 -1.000000 0.000000
vn 0.000000 -1.000000 0.000000
vn 0.000000 -1.000000 0.000000
vn 0.000000 -0.753022 0.657995
vn 0.000000 -0.753022 0.657995
vn 0.000000 -0.753022 0.657995
vn 0.000000 -0.753022 0.657995
vn 1.000000 -0.000000 0.000000
vn 1.000000 -0.000000 0.000000
vn 1.000000 -0.000000 0.000000
vn 1.000000 -0.000000 0.000000
vn 1.000000 -0.000000 0.000000
vn 1.000000 -0.000000 0.000000
vn -1.000000 0.000000 0.000000
vn -1.000000 0.000000 0.000000
vn -1.000000 0.000000 0.000000
vn -1.000000 0.000000 0.000000
vn -1.000000 0.000000 0.000000
vn -1.000000 0.000000 0.000000
vn 0.000000 -1.000000 0.000000
vn 0.000000 -1.000000 0.000000
vn 0.000000 -1.000000 0.000000
vn 0.000000 -1.000000 0.000000
vn 0.000000 -1.000000 0.000000
vn 0.000000 -1.000000 0.000000
vn 0.000000 -1.000000 0.000000
vn 0.000000 -1.000000 0.000000
vn -0.706854 0.000511 0.707359
vn -0.706643 0.000938 0.707570
vn -0.707106 0.000000 0.707107
vn -0.707106 0.000000 0.707107
vn -0.707106 0.532468 0.465274
vn -0.707106 0.532468 0.465274
vn -0.729481 0.652683 0.204604
vn -0.729481 0.652683 0.204604
vn 0.706643 0.000938 0.707570
vn 0.706854 0.000511 0.707359
vn 0.707106 0.000000 0.707107
vn 0.707106 0.000000 0.707107
vn 0.707105 0.532469 0.465273
vn 0.707105 0.532469 0.465273
vn 0.729481 0.652683 0.204603
vn 0.729481 0.652683 0.204604
vn -0.707106 0.532468 -0.465272
vn -0.707106 0.532468 -0.465272
vn -0.729481 0.652683 -0.204603
vn -0.729481 0.652683 -0.204603
vn -0.707106 0.000000 -0.707107
vn -0.707106 0.000000 -0.707107
vn -0.706643 0.000938 -0.707570
vn -0.706854 0.000511 -0.707359
vn 0.707106 0.000000 -0.707107
vn 0.707106 0.000000 -0.707107
vn 0.706854 0.000511 -0.707359
vn 0.706643 0.000938 -0.707570
vn 0.707107 0.532467 -0.465273
vn 0.707107 0.532467 -0.465273
vn 0.729482 0.652682 -0.204604
vn 0.729482 0.652682 -0.204603
vn 0.707109 0.000000 -0.707105
vn 0.707109 0.000000 -0.707105
vn 0.707109 0.000000 -0.707105
vn 0.707109 0.000000 -0.707105
vn 0.707107 -0.707106 0.000000
vn 0.707107 -0.707106 0.000000
vn 0.707107 -0.707106 0.000000
vn 0.707107 -0.707106 0.000000
vn 0.707109 0.000000 0.707105
vn 0.707109 0.000000 0.707105
vn 0.707109 0.000000 0.707105
vn 0.707109 0.000000 0.707105
vn 0.707106 0.532470 -0.465271
vn 0.707106 0.532470 -0.465271
vn 0.729475 0.652739 -0.204445
vn 0.729475 0.652739 -0.204445
vn 0.707108 0.532467 0.465271
vn 0.707108 0.532467 0.465271
vn 0.729476 0.652738 0.204445
vn 0.729476 0.652738 0.204446
vn 0.000000 0.000000 1.000000
vn 0.000000 0.000000 1.000000
vn 0.000000 0.000000 1.000000
vn 0.000000 0.000000 1.000000
vn 0.000000 1.000000 0.000000
vn 0.000000 1.000000 0.000000
vn 0.000000 1.000000 0.000000
vn 0.000000 1.000000 0.000000
vn 0.000000 0.000000 -1.000000
vn 0.000000 0.000000 -1.000000
vn 0.000000 0.000000 -1.000000
vn 0.000000 0.000000 -1.000000
vn 1.000000 0.000000 0.000000
vn 1.000000 0.000000 0.000000
vn 1.000000 0.000000 0.000000
vn 1.000000 0.000000 0.000000
vn 0.000000 0.753023 0.657995
vn 0.000000 0.753023 0.657995
vn 0.000000 0.753023 0.657995
vn 0.000000 0.753023 0.657995
vn 1.000000 0.000000 0.000000
vn 1.000000 0.000000 0.000000
vn 0.000000 0.753023 -0.657995
vn 0.000000 0.753023 -0.657995
vn 0.000000 0.753023 -0.657995
vn 0.000000 0.753023 -0.657995
vn 1.000000 0.000000 0.000000
vn 1.000000 0.000000 0.000000
vn 1.000000 0.000000 0.000000
vn 1.000000 0.000000 0.000000
vn 1.000000 0.000000 0.000000
vn 1.000000 0.000000 0.000000
vn 1.000000 0.000000 0.000000
vn 1.000000 0.000000 0.000000
vn 0.000000 -1.000000 0.000000
vn 0.000000 -1.000000 0.000000
vn 0.000000 -1.000000 0.000000
vn 0.000000 -1.000000 0.000000
vn 0.000000 0.000000 -1.000000
vn 0.000000 0.000000 -1.000000
vn 0.000000 0.000000 -1.000000
vn 0.000000 0.000000 -1.000000
vn 0.000000 0.000000 1.000000
vn 0.000000 0.000000 1.000000
vn 0.000000 0.000000 1.000000
vn 0.000000 0.000000 1.000000
vn 0.000000 0.753022 -0.657995
vn 0.000000 0.753022 -0.657995
vn 0.000000 0.753022 -0.657995
vn 0.000000 0.753022 -0.657995
vn 0.000000 1.000000 0.000000
vn 0.000000 1.000000 0.000000
vn 0.000000 1.000000 0.000000
vn 0.000000 1.000000 0.000000
vn 0.000000 0.753022 0.657995
vn 0.000000 0.753022 0.657995
vn 0.000000 0.753022 0.657995
vn 0.000000 0.753022 0.657995
vn -1.000000 0.000000 0.000000
vn -1.000000 0.000000 0.000000
vn -1.000000 -0.000000 0.000000
vn -1.000000 -0.000000 0.000000
vn -1.000000 0.000000 0.000000
vn -1.000000 0.000000 0.000000
vn -1.000000 0.000000 0.000000
vn -1.000000 0.000000 0.000000
vn -0.561118 0.235456 0.793541
vn 0.561122 0.235455 0.793539
vn -0.561118 0.235456 -0.793541
vn 0.561122 0.235455 -0.793539
s 1
g LOD0
usemtl initialShadingGroup
f 13/1/1 14/2/2 15/3/3 16/4/4
f 16/4/4 15/3/3 17/5/5 18/6/6
s off
f 7/10/7 8/78/8 14/2/9 13/1/10
f 8/78/11 9/81/12 15/3/13 14/2/14
f 10/79/15 7/10/16 13/1/17 16/4/18
f 9/81/19 11/83/20 17/5/21 15/3/22
f 11/83/23 12/85/24 18/6/25 17/5/26
f 12/85/27 10/79/28 16/4/29 18/6/30
s 2
f 24/11/31 26/12/32 37/13/33 36/59/34 1/64/35 2/68/36
s 3
f 31/7/37 33/8/38 20/9/39 19/76/40 8/78/41 7/10/42
s off
f 33/14/43 32/15/44 38/16/45 37/17/46 26/18/47 25/19/48 21/20/49 20/21/50
s 4
f 19/86/51 21/22/52 22/53/53 23/23/54
s 5
f 23/24/55 22/53/56 39/49/57 40/25/58
s 6
f 25/47/59 24/26/60 28/27/61 27/48/62
s 7
f 27/48/63 28/28/64 42/29/65 41/54/66
s 5
f 29/51/67 30/30/68 46/31/69 45/58/70
s 8
f 30/32/71 29/51/72 32/33/73 31/34/74
s 9
f 34/57/75 35/35/76 36/36/77 38/37/78
s 7
f 35/38/79 34/57/80 43/50/81 44/39/82
s 5
f 40/40/58 39/49/57 45/58/70 46/41/69
s 7
f 41/54/66 42/42/65 44/43/82 43/50/81
s off
f 47/44/83 48/67/84 52/71/85 51/52/86
f 48/67/87 47/44/88 50/45/89 49/65/90
f 49/65/91 50/45/92 54/55/93 53/69/94
s 10
f 51/52/95 52/71/96 56/73/97 55/56/98
f 53/69/99 54/55/100 57/46/101 58/75/102
f 55/56/98 56/73/97 58/75/102 57/46/101
s off
f 22/53/103 21/22/104 25/47/105 27/48/106
f 39/49/107 41/54/108 43/50/109 45/58/110
f 29/51/111 34/57/112 38/37/113 32/33/114
s 11
f 50/45/115 47/44/116 51/52/117 54/55/118
s off
f 22/53/119 27/48/120 41/54/121 39/49/122
s 11
f 54/55/118 51/52/117 55/56/123 57/46/124
s off
f 34/57/125 29/51/126 45/58/127 43/50/128
s 2
f 36/59/34 35/60/129 3/66/130 1/64/35
f 28/63/131 24/11/31 2/68/36 4/74/132
f 35/60/129 44/61/133 5/70/134 3/66/130
f 44/61/133 42/62/135 6/72/136 5/70/134
f 42/62/135 28/63/131 4/74/132 6/72/136
s off
f 2/68/137 1/64/138 48/67/139 49/65/140
f 1/64/141 3/66/142 52/71/143 48/67/144
f 4/74/145 2/68/146 49/65/147 53/69/148
f 3/66/149 5/70/150 56/73/151 52/71/152
f 5/70/153 6/72/154 58/75/155 56/73/156
f 6/72/157 4/74/158 53/69/159 58/75/160
s 3
f 19/76/40 23/77/161 9/81/162 8/78/41
f 30/84/163 31/7/37 7/10/42 10/79/164
f 23/77/161 40/80/165 11/83/166 9/81/162
f 40/80/165 46/82/167 12/85/168 11/83/166
f 46/82/167 30/84/163 10/79/164 12/85/168
s 4
f 19/86/51 20/87/169 21/22/52
s 6
f 24/26/60 25/47/59 26/88/170
s 8
f 31/34/74 32/33/73 33/89/171
s 9
f 36/36/77 37/90/172 38/37/78
